<?xml version="1.0" standalone="no"?>
<!DOCTYPE svg PUBLIC "-//W3C//DTD SVG 20010904//EN"
 "http://www.w3.org/TR/2001/REC-SVG-20010904/DTD/svg10.dtd">
<svg version="1.0" xmlns="http://www.w3.org/2000/svg"
 width="260.000000pt" height="260.000000pt" viewBox="0 0 260.000000 260.000000"
 preserveAspectRatio="xMidYMid meet">
<metadata>
Created by potrace 1.14, written by Peter Selinger 2001-2017
</metadata>
<g transform="translate(0.000000,260.000000) scale(0.100000,-0.100000)"
fill="#000000" stroke="none">
<path d="M479 2148 c-1 -2 -2 -96 -3 -211 -1 -234 -10 -214 92 -216 l62 -1 0
135 0 135 233 0 234 0 0 -700 0 -700 -114 0 -113 0 0 -70 0 -70 447 2 448 3 0
65 0 65 -113 3 c-108 3 -112 3 -113 25 -1 29 -1 1303 0 1345 l1 32 233 0 233
0 -1 -117 c0 -65 1 -125 3 -134 3 -13 18 -16 78 -16 l74 0 0 213 0 214 -840 0
c-462 0 -841 -1 -841 -2z"/>
</g>
</svg>
